<?xml version="1.0" encoding="UTF-8" standalone="no"?>
<svg
   id="visual"
   viewBox="0 0 910.57361 153.84122"
   width="910.57361"
   height="153.84122"
   version="1.1"
   sodipodi:docname="wave-footer.svg"
   inkscape:version="1.3.2 (091e20e, 2023-11-25)"
   xmlns:inkscape="http://www.inkscape.org/namespaces/inkscape"
   xmlns:sodipodi="http://sodipodi.sourceforge.net/DTD/sodipodi-0.dtd"
   xmlns="http://www.w3.org/2000/svg"
   xmlns:svg="http://www.w3.org/2000/svg">
  <defs
     id="defs1" />
  <sodipodi:namedview
     id="namedview1"
     pagecolor="#ffffff"
     bordercolor="#000000"
     borderopacity="0.25"
     inkscape:showpageshadow="2"
     inkscape:pageopacity="0.0"
     inkscape:pagecheckerboard="0"
     inkscape:deskcolor="#d1d1d1"
     inkscape:zoom="0.72152318"
     inkscape:cx="435.19045"
     inkscape:cy="78.999541"
     inkscape:window-width="1296"
     inkscape:window-height="667"
     inkscape:window-x="222"
     inkscape:window-y="38"
     inkscape:window-maximized="0"
     inkscape:current-layer="visual"
     inkscape:clip-to-page="false" />
  <path
     d="M -11.245526,-2.7719134 4.3088562,12.528087 c 15.5543838,15.4 46.6631508,46.000002 77.7719148,57.900002 31.108759,11.8 62.217519,4.8 93.326299,-4 31.10876,-8.9 62.21751,-19.5 93.32629,-25 31.10875,-5.500002 62.21753,-5.900002 93.32629,0.8 31.10878,6.7 62.21754,20.3 93.32629,37.5 31.10877,17.2 62.21753,37.800001 93.3263,45.200001 31.10876,7.3 62.21755,1.3 93.3263,-17.9 31.10876,-19.100001 62.21753,-51.500001 93.32629,-55.300001 31.10877,-3.8 62.21753,20.8 93.32631,28.2 31.10876,7.3 62.21752,-2.7 77.7719,-7.7 l 15.55439,-5 V 215.22809 h -15.55439 c -15.55438,0 -46.66314,0 -77.7719,0 -31.10878,0 -62.21754,0 -93.32631,0 -31.10876,0 -62.21753,0 -93.32629,0 -31.10875,0 -62.21754,0 -93.3263,0 -31.10877,0 -62.21753,0 -93.3263,0 -31.10875,0 -62.21751,0 -93.32629,0 -31.10876,0 -62.21754,0 -93.32629,0 -31.10878,0 -62.21753,0 -93.32629,0 -31.10878,0 -62.21754,0 -93.326299,0 -31.108764,0 -62.217531,0 -77.7719148,0 H -11.245526 Z"
     fill="#685bc7"
     stroke-linecap="round"
     stroke-linejoin="miter"
     id="path1"
     style="stroke-width:1.01831" />
</svg>
